<svg width="12" height="12" viewBox="0 0 12 12" fill="none" xmlns="http://www.w3.org/2000/svg">
<g id="Group">
<path id="Vector" d="M11.7295 1.47255C11.3389 1.0626 10.9287 0.672167 10.5381 0.262216C10.167 -0.108692 9.58107 -0.0891703 9.15138 0.340302C8.93653 0.535517 8.74122 0.750253 8.52637 0.964989L8.35059 1.14068C8.33106 1.1602 8.31152 1.17972 8.31152 1.19925L8.29199 1.17972L8.46778 1.35542L8.52637 1.41398L10.5967 3.46374L10.8116 3.67847L11.0655 3.44421C11.2608 3.249 11.4561 3.05379 11.6514 2.85857C12.0811 2.4291 12.1202 1.86298 11.7295 1.47255Z" fill="#ECC577"/>
<path id="Vector_2" d="M7.86196 1.62878L7.33461 2.13634L6.14319 3.32715C4.67833 4.79126 3.21346 6.27489 1.72907 7.739C1.61188 7.85613 1.51422 7.99278 1.45563 8.12943C1.10406 8.85173 0.752494 9.5545 0.400927 10.2573L0.147017 10.7648C0.0884226 10.882 0.0493596 11.0186 0.0102966 11.1357C-0.0482979 11.5066 0.147017 11.819 0.498584 11.8971C0.596242 11.9166 0.6939 11.9166 0.83062 11.8971C0.928278 11.8776 1.04547 11.8385 1.18219 11.7604L1.67048 11.5262C2.25642 11.2529 2.82283 10.96 3.40878 10.6672L3.48691 10.6282C3.74082 10.5111 4.03379 10.3549 4.30723 10.0816C5.08849 9.30072 5.86975 8.50034 6.65101 7.71948L10.03 4.32275C10.0495 4.30322 10.069 4.2837 10.0886 4.26418L10.3229 4.04945L7.86196 1.62878ZM3.233 10.1597L3.1744 10.1987C2.72518 10.4134 2.35408 10.6087 1.98298 10.7844C1.82673 10.6282 1.69001 10.472 1.53375 10.3354L1.18219 9.98397C1.4361 9.45689 1.70954 8.92981 1.96345 8.38321C1.98298 8.34417 2.00251 8.30512 2.04157 8.24656C2.1197 8.40273 2.27595 8.53938 2.52986 8.61747C2.56892 8.75412 2.64705 8.92981 2.8033 9.06646C2.92049 9.18359 3.07674 9.2812 3.29159 9.33976C3.33065 9.51546 3.44784 9.74971 3.68222 9.88636C3.52597 10.0035 3.38925 10.0816 3.233 10.1597Z" fill="#ECC577"/>
</g>
</svg>
